<svg width="50" height="50" viewBox="0 0 50 50" fill="none" xmlns="http://www.w3.org/2000/svg">
<g opacity="0.8" clip-path="url(#clip0_120_1454)">
<circle cx="25" cy="25" r="25" fill="white"/>
<path d="M18 25C18 24.7348 17.8946 24.4804 17.7071 24.2929C17.5196 24.1054 17.2652 24 17 24H16C15.7348 24 15.4804 24.1054 15.2929 24.2929C15.1054 24.4804 15 24.7348 15 25C15 25.2652 15.1054 25.5196 15.2929 25.7071C15.4804 25.8946 15.7348 26 16 26H17C17.2652 26 17.5196 25.8946 17.7071 25.7071C17.8946 25.5196 18 25.2652 18 25ZM18.64 30L17.93 30.71C17.7437 30.8974 17.6392 31.1508 17.6392 31.415C17.6392 31.6792 17.7437 31.9326 17.93 32.12C18.1174 32.3063 18.3708 32.4108 18.635 32.4108C18.8992 32.4108 19.1526 32.3063 19.34 32.12L20.05 31.41C20.2138 31.2187 20.2994 30.9726 20.2897 30.7209C20.28 30.4693 20.1757 30.2305 19.9976 30.0524C19.8195 29.8743 19.5807 29.77 19.3291 29.7603C19.0774 29.7506 18.8313 29.8362 18.64 30ZM25 18C25.2652 18 25.5196 17.8946 25.7071 17.7071C25.8946 17.5196 26 17.2652 26 17V16C26 15.7348 25.8946 15.4804 25.7071 15.2929C25.5196 15.1054 25.2652 15 25 15C24.7348 15 24.4804 15.1054 24.2929 15.2929C24.1054 15.4804 24 15.7348 24 16V17C24 17.2652 24.1054 17.5196 24.2929 17.7071C24.4804 17.8946 24.7348 18 25 18ZM30.66 20.34C30.9223 20.3389 31.1737 20.2347 31.36 20.05L32.07 19.34C32.1747 19.2504 32.2597 19.14 32.3197 19.016C32.3797 18.8919 32.4135 18.7568 32.4188 18.6191C32.4241 18.4813 32.4009 18.344 32.3506 18.2157C32.3004 18.0874 32.2241 17.9708 32.1266 17.8733C32.0292 17.7759 31.9126 17.6996 31.7843 17.6494C31.656 17.5991 31.5187 17.5759 31.3809 17.5812C31.2432 17.5865 31.1081 17.6203 30.984 17.6803C30.86 17.7403 30.7496 17.8253 30.66 17.93L30 18.64C29.8137 18.8274 29.7092 19.0808 29.7092 19.345C29.7092 19.6092 29.8137 19.8626 30 20.05C30.1763 20.2254 30.4116 20.3288 30.66 20.34ZM18.66 20.05C18.8463 20.2347 19.0977 20.3389 19.36 20.34C19.4916 20.3408 19.6221 20.3155 19.7439 20.2658C19.8657 20.216 19.9766 20.1427 20.07 20.05C20.2563 19.8626 20.3608 19.6092 20.3608 19.345C20.3608 19.0808 20.2563 18.8274 20.07 18.64L19.36 17.93C19.2674 17.8361 19.1572 17.7614 19.0358 17.71C18.9143 17.6587 18.7839 17.6318 18.6521 17.6309C18.5202 17.63 18.3895 17.655 18.2673 17.7046C18.1451 17.7542 18.0339 17.8274 17.94 17.92C17.8461 18.0126 17.7714 18.1228 17.72 18.2442C17.6687 18.3657 17.6418 18.4961 17.6409 18.6279C17.639 18.8942 17.743 19.1504 17.93 19.34L18.66 20.05ZM34 24H33C32.7348 24 32.4804 24.1054 32.2929 24.2929C32.1054 24.4804 32 24.7348 32 25C32 25.2652 32.1054 25.5196 32.2929 25.7071C32.4804 25.8946 32.7348 26 33 26H34C34.2652 26 34.5196 25.8946 34.7071 25.7071C34.8946 25.5196 35 25.2652 35 25C35 24.7348 34.8946 24.4804 34.7071 24.2929C34.5196 24.1054 34.2652 24 34 24ZM31.36 30C31.17 29.8943 30.9508 29.8534 30.7355 29.8835C30.5202 29.9136 30.3205 30.0131 30.1668 30.1668C30.0131 30.3205 29.9136 30.5202 29.8835 30.7355C29.8534 30.9508 29.8943 31.17 30 31.36L30.71 32.07C30.8974 32.2563 31.1508 32.3608 31.415 32.3608C31.6792 32.3608 31.9326 32.2563 32.12 32.07C32.3063 31.8826 32.4108 31.6292 32.4108 31.365C32.4108 31.1008 32.3063 30.8474 32.12 30.66L31.36 30ZM25 19.5C23.9122 19.5 22.8488 19.8226 21.9444 20.4269C21.0399 21.0313 20.3349 21.8902 19.9187 22.8952C19.5024 23.9002 19.3935 25.0061 19.6057 26.073C19.8179 27.1399 20.3417 28.1199 21.1109 28.8891C21.8801 29.6583 22.8601 30.1821 23.927 30.3943C24.9939 30.6065 26.0998 30.4976 27.1048 30.0813C28.1098 29.6651 28.9687 28.9601 29.5731 28.0556C30.1774 27.1512 30.5 26.0878 30.5 25C30.4974 23.5421 29.917 22.1447 28.8862 21.1138C27.8553 20.083 26.4579 19.5026 25 19.5ZM25 28.5C24.3078 28.5 23.6311 28.2947 23.0555 27.9101C22.4799 27.5256 22.0313 26.9789 21.7664 26.3394C21.5015 25.6999 21.4322 24.9961 21.5673 24.3172C21.7023 23.6383 22.0356 23.0146 22.5251 22.5251C23.0146 22.0356 23.6383 21.7023 24.3172 21.5673C24.9961 21.4322 25.6999 21.5015 26.3394 21.7664C26.9789 22.0313 27.5256 22.4799 27.9101 23.0555C28.2947 23.6311 28.5 24.3078 28.5 25C28.5 25.9283 28.1313 26.8185 27.4749 27.4749C26.8185 28.1313 25.9283 28.5 25 28.5ZM25 32C24.7348 32 24.4804 32.1054 24.2929 32.2929C24.1054 32.4804 24 32.7348 24 33V34C24 34.2652 24.1054 34.5196 24.2929 34.7071C24.4804 34.8946 24.7348 35 25 35C25.2652 35 25.5196 34.8946 25.7071 34.7071C25.8946 34.5196 26 34.2652 26 34V33C26 32.7348 25.8946 32.4804 25.7071 32.2929C25.5196 32.1054 25.2652 32 25 32Z" fill="#333333"/>
</g>
<defs>
<clipPath id="clip0_120_1454">
<rect width="50" height="50" fill="white"/>
</clipPath>
</defs>
</svg>
